{
  "extensionsUsed": [
    "KHR_lights_punctual"
  ],
  "accessors": [
    {
      "bufferView": 0,
      "componentType": 5126,
      "count": 1171,
      "type": "VEC3",
      "max": [
        2.7095441818237305,
        4.4022121429443359,
        1.5981101989746094
      ],
      "min": [
        -2.7095441818237305,
        -4.4022121429443359,
        -1.5981101989746094
      ]
    },
    {
      "bufferView": 1,
      "componentType": 5126,
      "count": 1171,
      "type": "VEC3",
      "max": [
        0.99957996606826782,
        0.99998044967651367,
        0.99992167949676514
      ],
      "min": [
        -0.99982422590255737,
        -0.99998676776885986,
        -0.999995231628418
      ]
    },
    {
      "bufferView": 2,
      "componentType": 5126,
      "count": 1171,
      "type": "VEC4",
      "max": [
        1.0,
        0.99997973442077637,
        1.0,
        1.0
      ],
      "min": [
        -1.0,
        -0.99995863437652588,
        -1.0,
        -1.0
      ]
    },
    {
      "bufferView": 3,
      "componentType": 5126,
      "count": 1171,
      "type": "VEC2",
      "max": [
        0.99148637056350708,
        0.99159955978393555
      ],
      "min": [
        0.00851364340633154,
        0.0084004402160644531
      ]
    },
    {
      "bufferView": 4,
      "componentType": 5123,
      "count": 3000,
      "type": "SCALAR",
      "max": [
        1170.0
      ],
      "min": [
        0.0
      ]
    },
    {
      "bufferView": 5,
      "componentType": 5126,
      "count": 58,
      "type": "VEC3",
      "max": [
        0.68030333518981934,
        0.35634544491767883,
        0.6881757378578186
      ],
      "min": [
        -0.68030333518981934,
        -0.35634544491767883,
        -0.6881757378578186
      ]
    },
    {
      "bufferView": 6,
      "componentType": 5126,
      "count": 58,
      "type": "VEC3",
      "max": [
        0.9432905912399292,
        0.933415412902832,
        0.97460120916366577
      ],
      "min": [
        -0.84672647714614868,
        -0.952162504196167,
        -0.91811960935592651
      ]
    },
    {
      "bufferView": 7,
      "componentType": 5126,
      "count": 58,
      "type": "VEC4",
      "max": [
        0.99983000755310059,
        0.81115108728408813,
        0.98415768146514893,
        1.0
      ],
      "min": [
        -0.99802762269973755,
        -0.77573025226593018,
        -0.99989867210388184,
        1.0
      ]
    },
    {
      "bufferView": 8,
      "componentType": 5126,
      "count": 58,
      "type": "VEC2",
      "max": [
        0.99263179302215576,
        0.99147582054138184
      ],
      "min": [
        0.0073682069778442383,
        0.0085241198539733887
      ]
    },
    {
      "bufferView": 9,
      "componentType": 5121,
      "count": 150,
      "type": "SCALAR",
      "max": [
        57.0
      ],
      "min": [
        0.0
      ]
    }
  ],
  "asset": {
    "version": "2.0"
  },
  "buffers": [
    {
      "uri": "juicepack.bin",
      "byteLength": 65142
    }
  ],
  "bufferViews": [
    {
      "buffer": 0,
      "byteLength": 14052
    },
    {
      "buffer": 0,
      "byteOffset": 14052,
      "byteLength": 14052
    },
    {
      "buffer": 0,
      "byteOffset": 28104,
      "byteLength": 18736
    },
    {
      "buffer": 0,
      "byteOffset": 46840,
      "byteLength": 9368
    },
    {
      "buffer": 0,
      "byteOffset": 56208,
      "byteLength": 6000
    },
    {
      "buffer": 0,
      "byteOffset": 62208,
      "byteLength": 696
    },
    {
      "buffer": 0,
      "byteOffset": 62904,
      "byteLength": 696
    },
    {
      "buffer": 0,
      "byteOffset": 63600,
      "byteLength": 928
    },
    {
      "buffer": 0,
      "byteOffset": 64528,
      "byteLength": 464
    },
    {
      "buffer": 0,
      "byteOffset": 64992,
      "byteLength": 150
    }
  ],
  "images": [
    {
      "uri": "JuicePack_Surface_Color.png",
      "name": "JuicePack_Surface_Color"
    },
    {
      "uri": "JuicePack_Cap_Surface_Color.png",
      "name": "JuicePack_Cap_Surface_Color"
    }
  ],
  "materials": [
    {
      "pbrMetallicRoughness": {
        "baseColorTexture": {
          "index": 0
        },
        "metallicFactor": 0.0
      },
      "doubleSided": true,
      "name": "JuicePack"
    },
    {
      "pbrMetallicRoughness": {
        "baseColorTexture": {
          "index": 1
        },
        "metallicFactor": 0.0
      },
      "doubleSided": true,
      "name": "JuicePack_Cap"
    }
  ],
  "meshes": [
    {
      "primitives": [
        {
          "attributes": {
            "POSITION": 0,
            "NORMAL": 1,
            "TANGENT": 2,
            "TEXCOORD_0": 3
          },
          "indices": 4,
          "material": 0
        }
      ],
      "name": "JuicePack"
    },
    {
      "primitives": [
        {
          "attributes": {
            "POSITION": 5,
            "NORMAL": 6,
            "TANGENT": 7,
            "TEXCOORD_0": 8
          },
          "indices": 9,
          "material": 1
        }
      ],
      "name": "Cap_50_Tris"
    }
  ],
  "nodes": [
    {
      "children": [
        1
      ],
      "mesh": 0,
      "scale": [
        0.02,
        0.02,
        0.02
      ],
      "name": "JuicePack"
    },
    {
      "mesh": 1,
      "translation": [
        -1.41845167,
        4.581488,
        0.7448958
      ],
      "name": "Cap_50_Tris"
    }
  ],
  "samplers": [
    {}
  ],
  "scene": 0,
  "scenes": [
    {
      "nodes": [
        0
      ],
      "name": "juicepack"
    }
  ],
  "textures": [
    {
      "sampler": 0,
      "source": 0,
      "name": "JuicePack_Surface_Color"
    },
    {
      "sampler": 0,
      "source": 1,
      "name": "JuicePack_Cap_Surface_Color"
    }
  ]
}