{
  "extensionsUsed": [
    "KHR_lights_punctual"
  ],
  "accessors": [
    {
      "bufferView": 0,
      "componentType": 5126,
      "count": 226,
      "type": "VEC3",
      "max": [
        3.6570308208465576,
        4.8000340461730957,
        1.5283199548721313
      ],
      "min": [
        -3.6570308208465576,
        -4.8000340461730957,
        -1.5283199548721313
      ]
    },
    {
      "bufferView": 1,
      "componentType": 5126,
      "count": 226,
      "type": "VEC3",
      "max": [
        0.99887913465499878,
        0.99993395805358887,
        0.99940907955169678
      ],
      "min": [
        -0.99996161460876465,
        -0.99999141693115234,
        -0.99924647808074951
      ]
    },
    {
      "bufferView": 2,
      "componentType": 5126,
      "count": 226,
      "type": "VEC4",
      "max": [
        0.99996721744537354,
        0.99997782707214355,
        0.7458539605140686,
        1.0
      ],
      "min": [
        -0.99999332427978516,
        -0.99992036819458008,
        -0.80384939908981323,
        1.0
      ]
    },
    {
      "bufferView": 3,
      "componentType": 5126,
      "count": 226,
      "type": "VEC2",
      "max": [
        1.0,
        1.0
      ],
      "min": [
        0.0,
        0.0
      ]
    },
    {
      "bufferView": 4,
      "componentType": 5126,
      "count": 226,
      "type": "VEC2",
      "max": [
        1.0,
        1.0
      ],
      "min": [
        0.0,
        0.0
      ]
    },
    {
      "bufferView": 5,
      "componentType": 5121,
      "count": 912,
      "type": "SCALAR",
      "max": [
        225.0
      ],
      "min": [
        0.0
      ]
    },
    {
      "bufferView": 6,
      "componentType": 5126,
      "count": 176,
      "type": "VEC3",
      "max": [
        3.6570308208465576,
        4.8000340461730957,
        1.5283199548721313
      ],
      "min": [
        -3.6570308208465576,
        -4.8000340461730957,
        -1.5283199548721313
      ]
    },
    {
      "bufferView": 7,
      "componentType": 5126,
      "count": 176,
      "type": "VEC3",
      "max": [
        0.99887913465499878,
        0.99993383884429932,
        0.99795180559158325
      ],
      "min": [
        -0.99940180778503418,
        -0.99933785200119019,
        -0.9977983832359314
      ]
    },
    {
      "bufferView": 8,
      "componentType": 5126,
      "count": 176,
      "type": "VEC4",
      "max": [
        0.99991345405578613,
        0.9999316930770874,
        0.94965720176696777,
        1.0
      ],
      "min": [
        -0.99999451637268066,
        -0.99992036819458008,
        -0.80219405889511108,
        -1.0
      ]
    },
    {
      "bufferView": 9,
      "componentType": 5126,
      "count": 176,
      "type": "VEC2",
      "max": [
        1.0,
        1.0
      ],
      "min": [
        0.0,
        0.0
      ]
    },
    {
      "bufferView": 10,
      "componentType": 5126,
      "count": 176,
      "type": "VEC2",
      "max": [
        1.0,
        1.0
      ],
      "min": [
        0.0,
        0.0
      ]
    },
    {
      "bufferView": 11,
      "componentType": 5121,
      "count": 600,
      "type": "SCALAR",
      "max": [
        175.0
      ],
      "min": [
        0.0
      ]
    },
    {
      "bufferView": 12,
      "componentType": 5126,
      "count": 153,
      "type": "VEC3",
      "max": [
        3.6570308208465576,
        4.8000340461730957,
        1.3519537448883057
      ],
      "min": [
        -3.6570308208465576,
        -4.8000340461730957,
        -1.3519537448883057
      ]
    },
    {
      "bufferView": 13,
      "componentType": 5126,
      "count": 153,
      "type": "VEC3",
      "max": [
        0.99887913465499878,
        0.99961167573928833,
        0.99780791997909546
      ],
      "min": [
        -0.99986565113067627,
        -0.99999141693115234,
        -0.9977983832359314
      ]
    },
    {
      "bufferView": 14,
      "componentType": 5126,
      "count": 153,
      "type": "VEC4",
      "max": [
        0.99999666213989258,
        0.99998307228088379,
        0.94512373208999634,
        1.0
      ],
      "min": [
        -1.0,
        -0.99992036819458008,
        -0.9591866135597229,
        -1.0
      ]
    },
    {
      "bufferView": 15,
      "componentType": 5126,
      "count": 153,
      "type": "VEC2",
      "max": [
        1.0,
        1.0
      ],
      "min": [
        0.0,
        0.0
      ]
    },
    {
      "bufferView": 16,
      "componentType": 5126,
      "count": 153,
      "type": "VEC2",
      "max": [
        1.0,
        1.0
      ],
      "min": [
        0.0,
        0.0
      ]
    },
    {
      "bufferView": 17,
      "componentType": 5121,
      "count": 450,
      "type": "SCALAR",
      "max": [
        152.0
      ],
      "min": [
        0.0
      ]
    }
  ],
  "asset": {
    "version": "2.0"
  },
  "buffers": [
    {
      "uri": "chips.bin",
      "byteLength": 33042
    }
  ],
  "bufferViews": [
    {
      "buffer": 0,
      "byteLength": 2712
    },
    {
      "buffer": 0,
      "byteOffset": 2712,
      "byteLength": 2712
    },
    {
      "buffer": 0,
      "byteOffset": 5424,
      "byteLength": 3616
    },
    {
      "buffer": 0,
      "byteOffset": 9040,
      "byteLength": 1808
    },
    {
      "buffer": 0,
      "byteOffset": 10848,
      "byteLength": 1808
    },
    {
      "buffer": 0,
      "byteOffset": 12656,
      "byteLength": 912
    },
    {
      "buffer": 0,
      "byteOffset": 13568,
      "byteLength": 2112
    },
    {
      "buffer": 0,
      "byteOffset": 15680,
      "byteLength": 2112
    },
    {
      "buffer": 0,
      "byteOffset": 17792,
      "byteLength": 2816
    },
    {
      "buffer": 0,
      "byteOffset": 20608,
      "byteLength": 1408
    },
    {
      "buffer": 0,
      "byteOffset": 22016,
      "byteLength": 1408
    },
    {
      "buffer": 0,
      "byteOffset": 23424,
      "byteLength": 600
    },
    {
      "buffer": 0,
      "byteOffset": 24024,
      "byteLength": 1836
    },
    {
      "buffer": 0,
      "byteOffset": 25860,
      "byteLength": 1836
    },
    {
      "buffer": 0,
      "byteOffset": 27696,
      "byteLength": 2448
    },
    {
      "buffer": 0,
      "byteOffset": 30144,
      "byteLength": 1224
    },
    {
      "buffer": 0,
      "byteOffset": 31368,
      "byteLength": 1224
    },
    {
      "buffer": 0,
      "byteOffset": 32592,
      "byteLength": 450
    }
  ],
  "images": [
    {
      "uri": "Chips.png",
      "name": "Chips"
    }
  ],
  "materials": [
    {
      "pbrMetallicRoughness": {
        "baseColorTexture": {
          "index": 0
        },
        "metallicFactor": 0.0
      },
      "doubleSided": true,
      "name": "Chips"
    }
  ],
  "meshes": [
    {
      "primitives": [
        {
          "attributes": {
            "POSITION": 0,
            "NORMAL": 1,
            "TANGENT": 2,
            "TEXCOORD_0": 3,
            "TEXCOORD_1": 4
          },
          "indices": 5,
          "material": 0
        }
      ],
      "name": "Chips_High__304_Tris_"
    },
    {
      "primitives": [
        {
          "attributes": {
            "POSITION": 6,
            "NORMAL": 7,
            "TANGENT": 8,
            "TEXCOORD_0": 9,
            "TEXCOORD_1": 10
          },
          "indices": 11,
          "material": 0
        }
      ],
      "name": "Chips_Mid__200_Tris_"
    },
    {
      "primitives": [
        {
          "attributes": {
            "POSITION": 12,
            "NORMAL": 13,
            "TANGENT": 14,
            "TEXCOORD_0": 15,
            "TEXCOORD_1": 16
          },
          "indices": 17,
          "material": 0
        }
      ],
      "name": "Chips_Low__150_Tris_"
    }
  ],
  "nodes": [
    {
      "children": [
        1,
        5,
        9,
        13,
        17,
        21,
        25,
        29,
        33,
        37,
        41,
        44
      ],
      "name": "Chips"
    },
    {
      "children": [
        2,
        3,
        4
      ],
      "rotation": [
        0.0,
        0.7071068,
        0.7071068,
        0.0
      ],
      "scale": [
        0.00166666589,
        0.00166666624,
        0.00166666624
      ],
      "translation": [
        0.06272473,
        -0.0145833371,
        0.0256083366
      ],
      "name": "Chips"
    },
    {
      "mesh": 0,
      "rotation": [
        -6.123234E-17,
        -1.0,
        6.123234E-17,
        -6.123234E-17
      ],
      "translation": [
        7.037355,
        -4.76837158E-07,
        0.008396149
      ],
      "name": "Chips_High__304_Tris_"
    },
    {
      "mesh": 1,
      "rotation": [
        -6.123234E-17,
        -1.0,
        6.123234E-17,
        -6.123234E-17
      ],
      "translation": [
        -1.62313223,
        -4.76837158E-07,
        0.008396149
      ],
      "name": "Chips_Mid__200_Tris_"
    },
    {
      "mesh": 2,
      "rotation": [
        -6.123234E-17,
        -1.0,
        6.123234E-17,
        -6.123234E-17
      ],
      "translation": [
        -10.16,
        0.0,
        -0.0167922974
      ],
      "name": "Chips_Low__150_Tris_"
    },
    {
      "children": [
        6,
        7,
        8
      ],
      "rotation": [
        0.0,
        0.7071068,
        0.7071068,
        0.0
      ],
      "scale": [
        0.00166666589,
        0.00166666624,
        0.00166666624
      ],
      "translation": [
        0.02005805,
        -0.0145833371,
        0.0256083366
      ],
      "name": "Chips (1)"
    },
    {
      "mesh": 0,
      "rotation": [
        -6.123234E-17,
        -1.0,
        6.123234E-17,
        -6.123234E-17
      ],
      "translation": [
        7.037355,
        -4.76837158E-07,
        0.008396149
      ],
      "name": "Chips_High__304_Tris_"
    },
    {
      "mesh": 1,
      "rotation": [
        -6.123234E-17,
        -1.0,
        6.123234E-17,
        -6.123234E-17
      ],
      "translation": [
        -1.62313223,
        -4.76837158E-07,
        0.008396149
      ],
      "name": "Chips_Mid__200_Tris_"
    },
    {
      "mesh": 2,
      "rotation": [
        -6.123234E-17,
        -1.0,
        6.123234E-17,
        -6.123234E-17
      ],
      "translation": [
        -10.16,
        0.0,
        -0.0167922974
      ],
      "name": "Chips_Low__150_Tris_"
    },
    {
      "children": [
        10,
        11,
        12
      ],
      "rotation": [
        0.0,
        0.7071068,
        0.7071068,
        0.0
      ],
      "scale": [
        0.00166666589,
        0.00166666624,
        0.00166666624
      ],
      "translation": [
        -0.0235252939,
        -0.0145833371,
        0.0256083366
      ],
      "name": "Chips (2)"
    },
    {
      "mesh": 0,
      "rotation": [
        -6.123234E-17,
        -1.0,
        6.123234E-17,
        -6.123234E-17
      ],
      "translation": [
        7.037355,
        -4.76837158E-07,
        0.008396149
      ],
      "name": "Chips_High__304_Tris_"
    },
    {
      "mesh": 1,
      "rotation": [
        -6.123234E-17,
        -1.0,
        6.123234E-17,
        -6.123234E-17
      ],
      "translation": [
        -1.62313223,
        -4.76837158E-07,
        0.008396149
      ],
      "name": "Chips_Mid__200_Tris_"
    },
    {
      "mesh": 2,
      "rotation": [
        -6.123234E-17,
        -1.0,
        6.123234E-17,
        -6.123234E-17
      ],
      "translation": [
        -10.16,
        0.0,
        -0.0167922974
      ],
      "name": "Chips_Low__150_Tris_"
    },
    {
      "children": [
        14,
        15,
        16
      ],
      "rotation": [
        0.0,
        0.7071068,
        0.7071068,
        0.0
      ],
      "scale": [
        0.00166666589,
        0.00166666624,
        0.00166666624
      ],
      "translation": [
        -0.06652531,
        -0.0145833371,
        0.0256083366
      ],
      "name": "Chips (3)"
    },
    {
      "mesh": 0,
      "rotation": [
        -6.123234E-17,
        -1.0,
        6.123234E-17,
        -6.123234E-17
      ],
      "translation": [
        7.037355,
        -4.76837158E-07,
        0.008396149
      ],
      "name": "Chips_High__304_Tris_"
    },
    {
      "mesh": 1,
      "rotation": [
        -6.123234E-17,
        -1.0,
        6.123234E-17,
        -6.123234E-17
      ],
      "translation": [
        -1.62313223,
        -4.76837158E-07,
        0.008396149
      ],
      "name": "Chips_Mid__200_Tris_"
    },
    {
      "mesh": 2,
      "rotation": [
        -6.123234E-17,
        -1.0,
        6.123234E-17,
        -6.123234E-17
      ],
      "translation": [
        -10.16,
        0.0,
        -0.0167922974
      ],
      "name": "Chips_Low__150_Tris_"
    },
    {
      "children": [
        18,
        19,
        20
      ],
      "rotation": [
        0.0,
        0.7071068,
        0.7071068,
        0.0
      ],
      "scale": [
        0.00166666589,
        0.00166666624,
        0.00166666624
      ],
      "translation": [
        0.06272473,
        -0.00450000167,
        0.0256083366
      ],
      "name": "Chips (4)"
    },
    {
      "mesh": 0,
      "rotation": [
        -6.123234E-17,
        -1.0,
        6.123234E-17,
        -6.123234E-17
      ],
      "translation": [
        7.037355,
        -4.76837158E-07,
        0.008396149
      ],
      "name": "Chips_High__304_Tris_"
    },
    {
      "mesh": 1,
      "rotation": [
        -6.123234E-17,
        -1.0,
        6.123234E-17,
        -6.123234E-17
      ],
      "translation": [
        -1.62313223,
        -4.76837158E-07,
        0.008396149
      ],
      "name": "Chips_Mid__200_Tris_"
    },
    {
      "mesh": 2,
      "rotation": [
        -6.123234E-17,
        -1.0,
        6.123234E-17,
        -6.123234E-17
      ],
      "translation": [
        -10.16,
        0.0,
        -0.0167922974
      ],
      "name": "Chips_Low__150_Tris_"
    },
    {
      "children": [
        22,
        23,
        24
      ],
      "rotation": [
        0.0,
        0.7071068,
        0.7071068,
        0.0
      ],
      "scale": [
        0.00166666589,
        0.00166666624,
        0.00166666624
      ],
      "translation": [
        0.02005805,
        -0.00450000167,
        0.0256083366
      ],
      "name": "Chips (5)"
    },
    {
      "mesh": 0,
      "rotation": [
        -6.123234E-17,
        -1.0,
        6.123234E-17,
        -6.123234E-17
      ],
      "translation": [
        7.037355,
        -4.76837158E-07,
        0.008396149
      ],
      "name": "Chips_High__304_Tris_"
    },
    {
      "mesh": 1,
      "rotation": [
        -6.123234E-17,
        -1.0,
        6.123234E-17,
        -6.123234E-17
      ],
      "translation": [
        -1.62313223,
        -4.76837158E-07,
        0.008396149
      ],
      "name": "Chips_Mid__200_Tris_"
    },
    {
      "mesh": 2,
      "rotation": [
        -6.123234E-17,
        -1.0,
        6.123234E-17,
        -6.123234E-17
      ],
      "translation": [
        -10.16,
        0.0,
        -0.0167922974
      ],
      "name": "Chips_Low__150_Tris_"
    },
    {
      "children": [
        26,
        27,
        28
      ],
      "rotation": [
        0.0,
        0.7071068,
        0.7071068,
        0.0
      ],
      "scale": [
        0.00166666589,
        0.00166666624,
        0.00166666624
      ],
      "translation": [
        -0.0235252939,
        -0.00450000167,
        0.0256083366
      ],
      "name": "Chips (6)"
    },
    {
      "mesh": 0,
      "rotation": [
        -6.123234E-17,
        -1.0,
        6.123234E-17,
        -6.123234E-17
      ],
      "translation": [
        7.037355,
        -4.76837158E-07,
        0.008396149
      ],
      "name": "Chips_High__304_Tris_"
    },
    {
      "mesh": 1,
      "rotation": [
        -6.123234E-17,
        -1.0,
        6.123234E-17,
        -6.123234E-17
      ],
      "translation": [
        -1.62313223,
        -4.76837158E-07,
        0.008396149
      ],
      "name": "Chips_Mid__200_Tris_"
    },
    {
      "mesh": 2,
      "rotation": [
        -6.123234E-17,
        -1.0,
        6.123234E-17,
        -6.123234E-17
      ],
      "translation": [
        -10.16,
        0.0,
        -0.0167922974
      ],
      "name": "Chips_Low__150_Tris_"
    },
    {
      "children": [
        30,
        31,
        32
      ],
      "rotation": [
        0.0,
        0.7071068,
        0.7071068,
        0.0
      ],
      "scale": [
        0.00166666589,
        0.00166666624,
        0.00166666624
      ],
      "translation": [
        -0.06652531,
        -0.00450000167,
        0.0256083366
      ],
      "name": "Chips (7)"
    },
    {
      "mesh": 0,
      "rotation": [
        -6.123234E-17,
        -1.0,
        6.123234E-17,
        -6.123234E-17
      ],
      "translation": [
        7.037355,
        -4.76837158E-07,
        0.008396149
      ],
      "name": "Chips_High__304_Tris_"
    },
    {
      "mesh": 1,
      "rotation": [
        -6.123234E-17,
        -1.0,
        6.123234E-17,
        -6.123234E-17
      ],
      "translation": [
        -1.62313223,
        -4.76837158E-07,
        0.008396149
      ],
      "name": "Chips_Mid__200_Tris_"
    },
    {
      "mesh": 2,
      "rotation": [
        -6.123234E-17,
        -1.0,
        6.123234E-17,
        -6.123234E-17
      ],
      "translation": [
        -10.16,
        0.0,
        -0.0167922974
      ],
      "name": "Chips_Low__150_Tris_"
    },
    {
      "children": [
        34,
        35,
        36
      ],
      "rotation": [
        0.0,
        0.7071068,
        0.7071068,
        0.0
      ],
      "scale": [
        0.00166666589,
        0.00166666624,
        0.00166666624
      ],
      "translation": [
        -0.06652531,
        0.00649999827,
        0.0256083366
      ],
      "name": "Chips (11)"
    },
    {
      "mesh": 0,
      "rotation": [
        -6.123234E-17,
        -1.0,
        6.123234E-17,
        -6.123234E-17
      ],
      "translation": [
        7.037355,
        -4.76837158E-07,
        0.008396149
      ],
      "name": "Chips_High__304_Tris_"
    },
    {
      "mesh": 1,
      "rotation": [
        -6.123234E-17,
        -1.0,
        6.123234E-17,
        -6.123234E-17
      ],
      "translation": [
        -1.62313223,
        -4.76837158E-07,
        0.008396149
      ],
      "name": "Chips_Mid__200_Tris_"
    },
    {
      "mesh": 2,
      "rotation": [
        -6.123234E-17,
        -1.0,
        6.123234E-17,
        -6.123234E-17
      ],
      "translation": [
        -10.16,
        0.0,
        -0.0167922974
      ],
      "name": "Chips_Low__150_Tris_"
    },
    {
      "children": [
        38,
        39,
        40
      ],
      "rotation": [
        0.0,
        0.7071068,
        0.7071068,
        0.0
      ],
      "scale": [
        0.00166666589,
        0.00166666624,
        0.00166666624
      ],
      "translation": [
        -0.0235252939,
        0.00649999827,
        0.0256083366
      ],
      "name": "Chips (10)"
    },
    {
      "mesh": 0,
      "rotation": [
        -6.123234E-17,
        -1.0,
        6.123234E-17,
        -6.123234E-17
      ],
      "translation": [
        7.037355,
        -4.76837158E-07,
        0.008396149
      ],
      "name": "Chips_High__304_Tris_"
    },
    {
      "mesh": 1,
      "rotation": [
        -6.123234E-17,
        -1.0,
        6.123234E-17,
        -6.123234E-17
      ],
      "translation": [
        -1.62313223,
        -4.76837158E-07,
        0.008396149
      ],
      "name": "Chips_Mid__200_Tris_"
    },
    {
      "mesh": 2,
      "rotation": [
        -6.123234E-17,
        -1.0,
        6.123234E-17,
        -6.123234E-17
      ],
      "translation": [
        -10.16,
        0.0,
        -0.0167922974
      ],
      "name": "Chips_Low__150_Tris_"
    },
    {
      "children": [
        42,
        43
      ],
      "rotation": [
        0.0,
        0.7071068,
        0.7071068,
        0.0
      ],
      "scale": [
        0.00166666589,
        0.00166666624,
        0.00166666624
      ],
      "translation": [
        0.02005805,
        0.00649999827,
        0.0256083366
      ],
      "name": "Chips (9)"
    },
    {
      "mesh": 0,
      "rotation": [
        -6.123234E-17,
        -1.0,
        6.123234E-17,
        -6.123234E-17
      ],
      "translation": [
        7.037355,
        -4.76837158E-07,
        0.008396149
      ],
      "name": "Chips_High__304_Tris_"
    },
    {
      "mesh": 2,
      "rotation": [
        -6.123234E-17,
        -1.0,
        6.123234E-17,
        -6.123234E-17
      ],
      "translation": [
        -10.16,
        0.0,
        -0.0167922974
      ],
      "name": "Chips_Low__150_Tris_"
    },
    {
      "children": [
        45,
        46,
        47
      ],
      "rotation": [
        0.0,
        0.7071068,
        0.7071068,
        0.0
      ],
      "scale": [
        0.00166666589,
        0.00166666624,
        0.00166666624
      ],
      "translation": [
        0.06272473,
        0.00649999827,
        0.0256083366
      ],
      "name": "Chips (8)"
    },
    {
      "mesh": 0,
      "rotation": [
        -6.123234E-17,
        -1.0,
        6.123234E-17,
        -6.123234E-17
      ],
      "translation": [
        7.037355,
        -4.76837158E-07,
        0.008396149
      ],
      "name": "Chips_High__304_Tris_"
    },
    {
      "mesh": 1,
      "rotation": [
        -6.123234E-17,
        -1.0,
        6.123234E-17,
        -6.123234E-17
      ],
      "translation": [
        -1.62313223,
        -4.76837158E-07,
        0.008396149
      ],
      "name": "Chips_Mid__200_Tris_"
    },
    {
      "mesh": 2,
      "rotation": [
        -6.123234E-17,
        -1.0,
        6.123234E-17,
        -6.123234E-17
      ],
      "translation": [
        -10.16,
        0.0,
        -0.0167922974
      ],
      "name": "Chips_Low__150_Tris_"
    }
  ],
  "samplers": [
    {}
  ],
  "scene": 0,
  "scenes": [
    {
      "nodes": [
        0
      ],
      "name": "chips"
    }
  ],
  "textures": [
    {
      "sampler": 0,
      "source": 0,
      "name": "Chips"
    }
  ]
}