{
  "extensionsUsed": [
    "KHR_lights_punctual"
  ],
  "accessors": [
    {
      "bufferView": 0,
      "componentType": 5126,
      "count": 36,
      "type": "VEC3",
      "max": [
        0.008660254068672657,
        0.0099999997764825821,
        0.0099999997764825821
      ],
      "min": [
        -0.008660254068672657,
        -0.0099999997764825821,
        -0.0099999997764825821
      ]
    },
    {
      "bufferView": 1,
      "componentType": 5126,
      "count": 36,
      "type": "VEC3",
      "max": [
        1.0,
        0.866025447845459,
        1.0
      ],
      "min": [
        -1.0,
        -0.866025447845459,
        -1.0
      ]
    },
    {
      "bufferView": 2,
      "componentType": 5126,
      "count": 36,
      "type": "VEC4",
      "max": [
        1.0,
        1.0,
        0.0,
        1.0
      ],
      "min": [
        -0.866025447845459,
        -1.0,
        0.0,
        -1.0
      ]
    },
    {
      "bufferView": 3,
      "componentType": 5126,
      "count": 36,
      "type": "VEC2",
      "max": [
        1.0,
        0.99000000953674316
      ],
      "min": [
        -8.9406967163085938E-08,
        0.0
      ]
    },
    {
      "bufferView": 4,
      "componentType": 5121,
      "count": 60,
      "type": "SCALAR",
      "max": [
        35.0
      ],
      "min": [
        0.0
      ]
    }
  ],
  "asset": {
    "version": "2.0"
  },
  "buffers": [
    {
      "uri": "hexagon.bin",
      "byteLength": 1788
    }
  ],
  "bufferViews": [
    {
      "buffer": 0,
      "byteLength": 432
    },
    {
      "buffer": 0,
      "byteOffset": 432,
      "byteLength": 432
    },
    {
      "buffer": 0,
      "byteOffset": 864,
      "byteLength": 576
    },
    {
      "buffer": 0,
      "byteOffset": 1440,
      "byteLength": 288
    },
    {
      "buffer": 0,
      "byteOffset": 1728,
      "byteLength": 60
    }
  ],
  "materials": [
    {
      "doubleSided": true,
      "name": "Teal"
    }
  ],
  "meshes": [
    {
      "primitives": [
        {
          "attributes": {
            "POSITION": 0,
            "NORMAL": 1,
            "TANGENT": 2,
            "TEXCOORD_0": 3
          },
          "indices": 4,
          "material": 0
        }
      ],
      "name": "Hexagon"
    }
  ],
  "nodes": [
    {
      "mesh": 0,
      "scale": [
        6.0,
        6.0,
        6.0
      ],
      "name": "Hexagon"
    }
  ],
  "scene": 0,
  "scenes": [
    {
      "nodes": [
        0
      ],
      "name": "hexagon"
    }
  ]
}