{
  "extensionsUsed": [
    "KHR_lights_punctual"
  ],
  "accessors": [
    {
      "bufferView": 0,
      "componentType": 5126,
      "count": 550,
      "type": "VEC3",
      "max": [
        0.003203683765605092,
        0.077205166220664978,
        0.046342086046934128
      ],
      "min": [
        -0.003203683765605092,
        -0.077205158770084381,
        -0.046342086046934128
      ]
    },
    {
      "bufferView": 1,
      "componentType": 5126,
      "count": 550,
      "type": "VEC3",
      "max": [
        1.0,
        1.0,
        0.99999964237213135
      ],
      "min": [
        -1.0,
        -1.0,
        -0.99999117851257324
      ]
    },
    {
      "bufferView": 2,
      "componentType": 5126,
      "count": 550,
      "type": "VEC4",
      "max": [
        0.99892407655715942,
        0.88636088371276855,
        0.80688589811325073,
        1.0
      ],
      "min": [
        -0.26679837703704834,
        -0.85819053649902344,
        -0.96375375986099243,
        1.0
      ]
    },
    {
      "bufferView": 3,
      "componentType": 5126,
      "count": 550,
      "type": "VEC2",
      "max": [
        0.931083083152771,
        1.0
      ],
      "min": [
        0.0,
        0.0
      ]
    },
    {
      "bufferView": 4,
      "componentType": 5123,
      "count": 2352,
      "type": "SCALAR",
      "max": [
        549.0
      ],
      "min": [
        0.0
      ]
    },
    {
      "bufferView": 5,
      "componentType": 5126,
      "count": 182,
      "type": "VEC3",
      "max": [
        0.0052299252711236477,
        0.030965084210038185,
        0.0098165031522512436
      ],
      "min": [
        -1.4901160305669237E-09,
        -0.030965080484747887,
        -0.0098165031522512436
      ]
    },
    {
      "bufferView": 6,
      "componentType": 5126,
      "count": 182,
      "type": "VEC3",
      "max": [
        0.99991774559021,
        1.0,
        0.98808693885803223
      ],
      "min": [
        -1.0,
        -1.0,
        -0.98834127187728882
      ]
    },
    {
      "bufferView": 7,
      "componentType": 5126,
      "count": 182,
      "type": "VEC4",
      "max": [
        0.85340428352355957,
        0.54692536592483521,
        -0.12394460290670395,
        1.0
      ],
      "min": [
        -0.88434559106826782,
        -0.50226777791976929,
        -0.86757582426071167,
        1.0
      ]
    },
    {
      "bufferView": 8,
      "componentType": 5126,
      "count": 182,
      "type": "VEC2",
      "max": [
        0.41229906678199768,
        1.0
      ],
      "min": [
        0.062906011939048767,
        0.47865748405456543
      ]
    },
    {
      "bufferView": 9,
      "componentType": 5121,
      "count": 684,
      "type": "SCALAR",
      "max": [
        181.0
      ],
      "min": [
        0.0
      ]
    },
    {
      "bufferView": 10,
      "componentType": 5126,
      "count": 182,
      "type": "VEC3",
      "max": [
        0.0029044921975582838,
        0.030965084210038185,
        0.0098165031522512436
      ],
      "min": [
        -0.0023254356347024441,
        -0.030965080484747887,
        -0.0098165031522512436
      ]
    },
    {
      "bufferView": 11,
      "componentType": 5126,
      "count": 182,
      "type": "VEC3",
      "max": [
        1.0,
        1.0,
        0.98834127187728882
      ],
      "min": [
        -0.99991774559021,
        -1.0,
        -0.98791944980621338
      ]
    },
    {
      "bufferView": 12,
      "componentType": 5126,
      "count": 182,
      "type": "VEC4",
      "max": [
        0.88434535264968872,
        0.54692524671554565,
        0.86757582426071167,
        1.0
      ],
      "min": [
        -0.85340428352355957,
        -0.50090998411178589,
        0.12394167482852936,
        1.0
      ]
    },
    {
      "bufferView": 13,
      "componentType": 5126,
      "count": 182,
      "type": "VEC2",
      "max": [
        0.41229906678199768,
        1.0
      ],
      "min": [
        0.062906011939048767,
        0.47865748405456543
      ]
    },
    {
      "bufferView": 14,
      "componentType": 5121,
      "count": 684,
      "type": "SCALAR",
      "max": [
        181.0
      ],
      "min": [
        0.0
      ]
    }
  ],
  "asset": {
    "version": "2.0"
  },
  "buffers": [
    {
      "uri": "racket.bin",
      "byteLength": 49944
    }
  ],
  "bufferViews": [
    {
      "buffer": 0,
      "byteLength": 6600
    },
    {
      "buffer": 0,
      "byteOffset": 6600,
      "byteLength": 6600
    },
    {
      "buffer": 0,
      "byteOffset": 13200,
      "byteLength": 8800
    },
    {
      "buffer": 0,
      "byteOffset": 22000,
      "byteLength": 4400
    },
    {
      "buffer": 0,
      "byteOffset": 26400,
      "byteLength": 4704
    },
    {
      "buffer": 0,
      "byteOffset": 31104,
      "byteLength": 2184
    },
    {
      "buffer": 0,
      "byteOffset": 33288,
      "byteLength": 2184
    },
    {
      "buffer": 0,
      "byteOffset": 35472,
      "byteLength": 2912
    },
    {
      "buffer": 0,
      "byteOffset": 38384,
      "byteLength": 1456
    },
    {
      "buffer": 0,
      "byteOffset": 39840,
      "byteLength": 684
    },
    {
      "buffer": 0,
      "byteOffset": 40524,
      "byteLength": 2184
    },
    {
      "buffer": 0,
      "byteOffset": 42708,
      "byteLength": 2184
    },
    {
      "buffer": 0,
      "byteOffset": 44892,
      "byteLength": 2912
    },
    {
      "buffer": 0,
      "byteOffset": 47804,
      "byteLength": 1456
    },
    {
      "buffer": 0,
      "byteOffset": 49260,
      "byteLength": 684
    }
  ],
  "images": [
    {
      "uri": "initialShadingGroup_Base_Color.png",
      "name": "initialShadingGroup_Base_Color"
    }
  ],
  "materials": [
    {
      "pbrMetallicRoughness": {
        "baseColorTexture": {
          "index": 0
        },
        "metallicFactor": 0.0
      },
      "doubleSided": true,
      "name": "initialShadingGroup_Base_Color"
    },
    {
      "name": "PingPong_Racket1"
    }
  ],
  "meshes": [
    {
      "primitives": [
        {
          "attributes": {
            "POSITION": 0,
            "NORMAL": 1,
            "TANGENT": 2,
            "TEXCOORD_0": 3
          },
          "indices": 4,
          "material": 0
        }
      ],
      "name": "Racket"
    },
    {
      "primitives": [
        {
          "attributes": {
            "POSITION": 5,
            "NORMAL": 6,
            "TANGENT": 7,
            "TEXCOORD_0": 8
          },
          "indices": 9,
          "material": 0
        }
      ],
      "name": "Handle_Half2"
    },
    {
      "primitives": [
        {
          "attributes": {
            "POSITION": 10,
            "NORMAL": 11,
            "TANGENT": 12,
            "TEXCOORD_0": 13
          },
          "indices": 14,
          "material": 1
        }
      ],
      "name": "Handle_Half1"
    }
  ],
  "nodes": [
    {
      "children": [
        1,
        2
      ],
      "mesh": 0,
      "name": "Racket"
    },
    {
      "mesh": 1,
      "translation": [
        0.00163603178,
        -0.0462400652,
        0.000767588965
      ],
      "name": "Handle_Half2"
    },
    {
      "mesh": 2,
      "translation": [
        -0.0045405,
        -0.0462400652,
        0.000767588965
      ],
      "name": "Handle_Half1"
    }
  ],
  "samplers": [
    {}
  ],
  "scene": 0,
  "scenes": [
    {
      "nodes": [
        0
      ],
      "name": "racket"
    }
  ],
  "textures": [
    {
      "sampler": 0,
      "source": 0,
      "name": "initialShadingGroup_Base_Color"
    }
  ]
}