{
  "extensionsUsed": [
    "KHR_lights_punctual"
  ],
  "accessors": [
    {
      "bufferView": 0,
      "componentType": 5126,
      "count": 4,
      "type": "VEC3",
      "max": [
        0.5,
        0.5,
        3.0616168005906746E-17
      ],
      "min": [
        -0.5,
        -0.5,
        -3.0616168005906746E-17
      ]
    },
    {
      "bufferView": 1,
      "componentType": 5126,
      "count": 4,
      "type": "VEC3",
      "max": [
        0.0,
        0.0,
        -1.0
      ],
      "min": [
        0.0,
        0.0,
        -1.0
      ]
    },
    {
      "bufferView": 2,
      "componentType": 5126,
      "count": 4,
      "type": "VEC4",
      "max": [
        -1.0,
        0.0,
        0.0,
        1.0
      ],
      "min": [
        -1.0,
        0.0,
        0.0,
        1.0
      ]
    },
    {
      "bufferView": 3,
      "componentType": 5126,
      "count": 4,
      "type": "VEC2",
      "max": [
        1.0,
        1.0
      ],
      "min": [
        0.0,
        0.0
      ]
    },
    {
      "bufferView": 4,
      "componentType": 5121,
      "count": 6,
      "type": "SCALAR",
      "max": [
        3.0
      ],
      "min": [
        0.0
      ]
    }
  ],
  "asset": {
    "version": "2.0"
  },
  "buffers": [
    {
      "uri": "scene.bin",
      "byteLength": 198
    }
  ],
  "bufferViews": [
    {
      "buffer": 0,
      "byteLength": 48
    },
    {
      "buffer": 0,
      "byteOffset": 48,
      "byteLength": 48
    },
    {
      "buffer": 0,
      "byteOffset": 96,
      "byteLength": 64
    },
    {
      "buffer": 0,
      "byteOffset": 160,
      "byteLength": 32
    },
    {
      "buffer": 0,
      "byteOffset": 192,
      "byteLength": 6
    }
  ],
  "cameras": [
    {
      "perspective": {
        "aspectRatio": 1.7422062158584595,
        "yfov": 1.0421421527862549,
        "zfar": 998.65380859375,
        "znear": 0.0099999997764825821
      },
      "type": "perspective",
      "name": "Main Camera"
    }
  ],
  "materials": [
    {
      "doubleSided": true,
      "name": "VSTmaterial"
    }
  ],
  "meshes": [
    {
      "primitives": [
        {
          "attributes": {
            "POSITION": 0,
            "NORMAL": 1,
            "TANGENT": 2,
            "TEXCOORD_0": 3
          },
          "indices": 4,
          "material": 0
        }
      ],
      "name": "Quad"
    }
  ],
  "nodes": [
    {
      "rotation": [
        0.374068648,
        0.284967124,
        0.7567049,
        -0.4541631
      ],
      "translation": [
        0.3,
        6.33,
        0.0
      ],
      "extensions": {
        "KHR_lights_punctual": {
          "light": 0
        }
      },
      "name": "Directional Light"
    },
    {
      "children": [
        2
      ],
      "name": "GazeReticle"
    },
    {
      "scale": [
        0.05,
        0.05,
        0.05
      ],
      "name": "New Sprite"
    },
    {
      "translation": [
        0.627922058,
        -1.11462283,
        -6.658077
      ],
      "name": "Post Process Volume Variant"
    },
    {
      "children": [
        5
      ],
      "name": "XrRig"
    },
    {
      "camera": 0,
      "rotation": [
        -0.0229621641,
        -0.97605896,
        0.173391879,
        -0.129294246
      ],
      "translation": [
        -6.789299,
        3.48910332,
        1.51248229
      ],
      "name": "Main Camera"
    },
    {
      "name": "Cognitive3D_Manager"
    },
    {
      "mesh": 0,
      "rotation": [
        1.0,
        0.0,
        0.0,
        0.0
      ],
      "translation": [
        0.3451743,
        2.75,
        -4.49
      ],
      "name": "Quad"
    }
  ],
  "scene": 0,
  "scenes": [
    {
      "nodes": [
        0,
        1,
        3,
        4,
        6,
        7
      ],
      "name": "scene"
    }
  ],
  "extensions": {
    "KHR_lights_punctual": {
      "lights": [
        {
          "type": "directional",
          "intensity": 1000.0,
          "color": [
            1.0,
            0.956862748,
            0.8392157
          ],
          "name": "Directional Light"
        }
      ]
    }
  }
}